# xmcd
# Track frame offsets:
# 150
# 21320
# 33377
# 45176
# 65410
# 83406
# 95243
# 107461
# 125895
# 143598
#
# Disc length: 2124 seconds
# Revision: 0
# Processed by: cddbd v1.5.1PL2 Copyright (c) Steve Scherf et al.
# Submitted via: VisiTrax 2.10.0.248 - For more info visit www.synapsa.com
#
DISCID=7c084a0a
DTITLE=Merle Haggard - Going Where The Lonely Go
DYEAR=1982
DGENRE=Country
TTITLE0=Going Where The Lonely Go
TTITLE1=Why Am I Drinkin'
TTITLE2=If I Left It Up To You
TTITLE3=I Won't Give Up My Train
TTITLE4=Someday You're Gonna Need Your Friends Again
TTITLE5=Shopping For Dresses
TTITLE6=You Take Me For Granted
TTITLE7=Half A Man
TTITLE8=For All I Know
TTITLE9=Nobody's Darlin' But Mine
EXTD=
EXTT0=
EXTT1=
EXTT2=
EXTT3=
EXTT4=
EXTT5=
EXTT6=
EXTT7=
EXTT8=
EXTT9=
PLAYORDER=
